P3
48 48
255
254 255 254
254 255 254
254 255 254
254 255 254
254 255 254
254 255 254
254 255 254
254 255 254
254 255 254
254 255 254
254 255 254
254 255 254
254 255 254
254 255 254
254 255 254
254 255 254
254 255 254
254 255 254
254 255 254
254 255 254
254 255 254
254 255 254
254 255 254
254 255 254
254 255 254
254 255 254
254 255 254
254 255 254
254 255 254
254 255 254
254 255 254
254 255 254
254 255 254
254 255 254
254 255 254
254 255 254
254 255 254
254 255 254
254 255 254
254 255 254
254 255 254
254 255 254
254 255 254
254 255 254
254 255 254
254 255 254
254 255 254
254 255 254
254 255 254
254 255 254
254 255 254
254 255 254
254 255 254
254 255 254
254 255 254
254 255 254
254 255 254
254 255 254
254 255 254
254 255 254
254 255 254
254 255 254
254 255 254
254 255 254
254 255 254
254 255 254
254 255 254
254 255 254
254 255 254
254 255 254
254 255 254
254 255 254
254 255 254
254 255 254
254 255 254
254 255 254
254 255 254
254 255 254
254 255 254
254 255 254
254 255 254
254 255 254
254 255 254
254 255 254
254 255 254
254 255 254
254 255 254
254 255 254
254 255 254
254 255 254
254 255 254
254 255 254
254 255 254
254 255 254
254 255 254
254 255 254
254 255 254
254 255 254
254 255 254
254 255 254
254 255 254
254 255 254
254 255 254
254 255 254
254 255 254
254 255 254
254 255 254
254 255 254
254 255 254
254 255 254
254 255 254
254 255 254
254 255 254
254 255 254
254 255 254
254 255 254
254 255 254
254 255 254
254 255 254
254 255 254
254 255 254
254 255 254
254 255 254
254 255 254
254 255 254
254 255 254
254 255 254
254 255 254
254 255 254
254 255 254
254 255 254
254 255 254
254 255 254
254 255 254
254 255 254
254 255 254
254 255 254
254 255 254
254 255 254
254 255 254
254 255 254
254 255 254
254 255 254
254 255 254
254 255 254
254 255 254
254 255 254
254 255 254
254 255 254
254 255 254
254 255 254
254 255 254
254 255 254
254 255 254
254 255 254
254 255 254
254 255 254
254 255 254
254 255 254
254 255 254
254 255 254
254 255 254
254 255 254
254 255 254
254 255 254
254 255 254
254 255 254
254 255 254
254 255 254
254 255 254
254 255 254
254 255 254
254 255 254
254 255 254
254 255 254
254 255 254
254 255 254
254 255 254
254 255 254
254 255 254
254 255 254
254 255 254
254 255 254
254 255 254
254 255 254
254 255 254
254 255 254
254 255 254
254 255 254
254 255 254
254 255 254
254 255 254
254 255 254
254 255 254
254 255 254
254 255 254
254 255 254
254 255 254
254 255 254
254 255 254
254 255 254
254 255 254
254 255 254
254 255 254
254 255 254
254 255 254
254 255 254
254 255 254
254 255 254
254 255 254
254 255 254
254 255 254
254 255 254
254 255 254
254 255 254
254 255 254
254 255 254
254 255 254
254 255 254
254 255 254
254 255 254
254 255 254
254 255 254
254 255 254
254 255 254
254 255 254
254 255 254
254 255 254
254 255 254
254 255 254
254 255 254
254 255 254
254 255 254
254 255 254
254 255 254
254 255 254
254 255 254
254 255 254
254 255 254
254 255 254
254 255 254
254 255 254
254 255 254
254 255 254
254 255 254
254 255 254
254 255 254
254 255 254
254 255 254
254 255 254
254 255 254
254 255 254
254 255 254
254 255 254
254 255 254
254 255 254
254 255 254
254 255 254
254 255 254
254 255 254
254 255 254
254 255 254
254 255 254
222 255 222
250 255 250
254 255 254
254 255 254
254 255 254
254 255 254
254 255 254
254 255 254
254 255 254
254 255 254
254 255 254
254 255 254
254 255 254
254 255 254
254 255 254
254 255 254
254 255 254
254 255 254
254 255 254
254 255 254
254 255 254
254 255 254
254 255 254
254 255 254
254 255 254
254 255 254
254 255 254
254 255 254
254 255 254
254 255 254
254 255 254
254 255 254
254 255 254
254 255 254
206 255 203
138 244 135
114 226 110
107 218 102
147 255 143
246 255 246
254 255 254
254 255 254
254 255 254
254 255 254
254 255 254
254 255 254
254 255 254
174 255 162
98 192 76
77 177 77
246 255 246
254 255 254
254 255 254
254 255 254
254 255 254
254 255 254
254 255 254
254 255 254
254 255 254
254 255 254
254 255 254
254 255 254
254 255 254
254 255 254
254 255 254
254 255 254
254 255 254
254 255 254
254 255 254
254 255 254
254 255 254
254 255 254
254 255 254
254 255 254
254 255 254
254 255 254
254 255 254
254 255 254
254 255 254
254 255 254
254 255 254
182 255 182
101 214 96
114 230 102
138 250 122
129 246 108
101 214 96
101 214 96
182 255 178
254 255 254
254 255 254
254 255 254
254 255 254
254 255 254
254 255 254
126 222 81
42 142 41
82 182 82
238 255 238
254 255 254
254 255 254
254 255 254
254 255 254
254 255 254
254 255 254
254 255 254
254 255 254
254 255 254
254 255 254
254 255 254
254 255 254
254 255 254
254 255 254
254 255 254
254 255 254
254 255 254
254 255 254
254 255 254
254 255 254
254 255 254
254 255 254
254 255 254
254 255 254
254 255 254
254 255 254
254 255 254
254 255 254
254 255 254
242 255 242
99 210 94
107 218 102
134 250 114
138 250 122
128 242 112
141 255 116
130 250 110
101 214 96
182 255 182
254 255 254
254 255 254
254 255 254
254 255 254
226 255 224
98 192 76
22 122 22
190 255 190
254 255 254
254 255 254
254 255 254
254 255 254
254 255 254
254 255 254
254 255 254
254 255 254
254 255 254
254 255 254
254 255 254
254 255 254
254 255 254
254 255 254
254 255 254
254 255 254
254 255 254
254 255 254
254 255 254
254 255 254
254 255 254
254 255 254
254 255 254
254 255 254
254 255 254
254 255 254
254 255 254
254 255 254
254 255 254
254 255 254
106 216 92
106 222 98
129 246 108
120 234 106
114 230 102
112 226 98
110 221 98
112 226 98
112 226 103
99 210 94
182 255 178
254 255 254
254 255 254
254 255 254
162 255 146
30 130 30
63 163 63
254 255 254
254 255 254
254 255 254
254 255 254
254 255 254
254 255 254
254 255 254
254 255 254
254 255 254
254 255 254
254 255 254
254 255 254
254 255 254
254 255 254
254 255 254
254 255 254
254 255 254
254 255 254
254 255 254
254 255 254
254 255 254
254 255 254
254 255 254
254 255 254
254 255 254
254 255 254
254 255 254
254 255 254
254 255 254
254 255 254
130 242 126
101 214 96
139 250 102
114 230 102
118 230 106
122 238 106
150 255 122
141 255 116
150 255 122
150 255 122
129 246 108
99 210 94
142 251 132
254 255 254
254 255 254
126 218 106
30 130 30
190 255 190
254 255 254
254 255 254
254 255 254
254 255 254
254 255 254
254 255 254
254 255 254
254 255 254
254 255 254
254 255 254
254 255 254
254 255 254
254 255 254
254 255 254
254 255 254
254 255 254
254 255 254
254 255 254
254 255 254
254 255 254
254 255 254
254 255 254
254 255 254
254 255 254
254 255 254
254 255 254
254 255 254
254 255 254
254 255 254
222 255 214
101 214 96
129 246 108
114 230 102
122 238 106
146 255 122
114 230 102
122 238 106
112 226 98
96 208 90
96 208 90
99 210 94
96 208 90
96 208 90
130 238 126
254 255 254
104 202 98
42 142 41
254 255 254
254 255 254
254 255 254
210 255 208
190 255 154
190 255 190
190 255 190
203 255 190
254 255 254
254 255 254
254 255 254
254 255 254
254 255 254
254 255 254
254 255 254
254 255 254
254 255 254
254 255 254
254 255 254
254 255 254
254 255 254
254 255 254
254 255 254
254 255 254
254 255 254
254 255 254
254 255 254
254 255 254
254 255 254
254 255 254
121 233 114
114 230 102
118 230 106
130 250 110
106 222 98
146 255 122
107 218 102
101 214 96
107 218 102
130 238 126
201 255 200
234 255 233
222 255 222
138 244 135
96 208 90
130 238 126
106 202 90
118 218 118
254 255 254
206 255 190
150 246 98
142 233 91
140 226 88
134 226 86
126 222 81
120 218 76
114 214 74
130 230 102
154 254 134
226 255 224
254 255 254
254 255 254
254 255 254
254 255 254
254 255 254
254 255 254
254 255 254
254 255 254
254 255 254
254 255 254
254 255 254
254 255 254
254 255 254
254 255 254
254 255 254
254 255 254
254 255 254
203 255 203
107 218 102
118 230 106
122 238 106
134 250 114
114 226 110
138 244 135
138 244 135
182 255 182
246 255 246
254 255 254
254 255 254
254 255 254
254 255 254
254 255 254
182 255 178
114 222 110
118 218 118
138 244 135
182 255 138
150 242 106
154 242 97
150 246 98
150 242 106
148 242 96
147 234 91
140 226 88
130 225 83
120 218 76
122 214 78
104 206 68
122 226 98
203 255 190
254 255 254
254 255 254
254 255 254
254 255 254
254 255 254
254 255 254
254 255 254
254 255 254
254 255 254
254 255 254
254 255 254
254 255 254
254 255 254
254 255 254
254 255 254
110 221 98
120 234 106
141 255 116
121 233 114
110 221 98
118 230 106
146 255 122
234 255 233
254 255 254
217 255 209
170 255 138
137 230 86
147 234 91
147 234 91
137 230 86
166 255 108
170 255 138
158 250 118
150 242 106
161 250 103
158 255 109
165 254 107
166 255 108
165 254 107
161 250 103
158 246 101
154 238 96
147 234 91
137 230 86
126 226 86
114 214 74
102 202 65
90 194 59
127 233 114
226 255 224
254 255 254
254 255 254
254 255 254
254 255 254
254 255 254
254 255 254
254 255 254
254 255 254
254 255 254
254 255 254
254 255 254
254 255 254
182 255 174
120 234 106
128 242 112
107 218 102
112 222 106
147 255 143
230 255 229
254 255 254
230 255 229
166 255 123
147 234 91
154 242 97
166 250 104
165 254 107
165 254 107
165 254 107
165 254 107
170 255 112
170 255 112
172 255 114
174 255 116
172 255 114
181 255 123
172 255 114
166 255 108
165 254 107
161 250 103
158 246 101
154 242 97
138 238 92
137 230 86
130 225 83
114 214 74
102 202 65
90 194 59
98 202 64
203 255 203
254 255 254
254 255 254
254 255 254
254 255 254
254 255 254
254 255 254
254 255 254
254 255 254
254 255 254
254 255 254
254 255 254
138 250 122
118 230 106
112 222 106
182 255 178
242 255 242
254 255 254
254 255 254
230 255 229
150 242 106
154 238 96
166 250 104
166 255 123
170 255 112
186 255 130
188 255 132
178 255 120
178 255 120
181 255 123
181 255 123
181 255 123
186 255 130
178 255 124
182 255 126
182 255 126
172 255 114
170 255 112
165 254 107
166 250 104
158 246 101
154 238 96
142 233 91
130 225 83
114 214 74
104 206 68
98 198 62
78 182 50
87 190 56
182 255 178
254 255 254
254 255 254
254 255 254
254 255 254
254 255 254
254 255 254
254 255 254
254 255 254
254 255 254
206 255 203
118 230 106
198 255 197
254 255 254
254 255 254
254 255 254
254 255 254
254 255 254
154 238 96
158 246 101
170 255 112
186 255 130
204 255 166
223 255 197
217 255 186
217 255 186
194 255 141
188 255 132
188 255 132
188 255 132
188 255 132
186 255 135
188 255 132
182 255 130
181 255 123
170 255 116
172 255 114
170 255 112
166 250 104
166 250 104
154 242 97
147 238 93
137 230 86
120 218 76
104 206 68
98 198 62
82 186 54
73 182 49
78 182 50
230 255 229
254 255 254
254 255 254
254 255 254
254 255 254
254 255 254
254 255 254
254 255 254
254 255 254
206 255 203
203 255 203
254 255 254
254 255 254
254 255 254
254 255 254
254 255 254
182 255 154
158 246 101
170 255 112
202 255 157
223 255 197
234 255 233
226 255 203
217 255 186
211 255 175
194 255 139
194 255 139
194 255 139
190 255 137
194 255 139
190 255 137
186 255 135
182 255 130
182 255 126
174 255 118
172 255 114
166 255 108
165 254 107
161 250 103
161 250 103
147 238 93
137 230 86
130 225 83
114 214 74
102 202 65
87 190 56
78 182 50
78 182 50
114 222 90
254 255 254
254 255 254
254 255 254
254 255 254
254 255 254
254 255 254
254 255 254
254 255 254
254 255 254
254 255 254
254 255 254
254 255 254
254 255 254
254 255 254
218 255 218
154 246 100
166 255 123
194 255 139
220 255 192
230 255 210
230 255 210
220 255 192
209 255 171
198 255 152
194 255 141
198 255 152
194 255 141
194 255 139
190 255 137
190 255 137
186 255 135
188 255 132
178 255 124
170 255 116
170 255 115
163 255 109
166 255 108
165 254 107
158 246 101
154 242 97
147 238 93
140 226 88
120 218 76
104 206 68
90 194 59
78 182 50
78 182 50
87 190 56
182 255 178
254 255 254
254 255 254
254 255 254
254 255 254
254 255 254
254 255 254
254 255 254
254 255 254
254 255 254
254 255 254
254 255 254
254 255 254
254 255 254
166 255 123
161 250 103
172 255 114
209 255 171
223 255 197
230 255 210
220 255 192
226 255 203
198 255 152
198 255 152
209 255 171
198 255 156
194 255 145
194 255 141
194 255 141
194 255 141
186 255 135
182 255 130
178 255 124
170 255 116
170 255 115
163 255 109
166 255 108
154 254 103
158 246 101
148 242 96
142 233 91
140 226 88
120 222 79
114 214 74
94 202 63
82 186 54
78 182 50
78 186 54
110 214 74
254 255 254
254 255 254
254 255 254
254 255 254
254 255 254
254 255 254
254 255 254
254 255 254
254 255 254
254 255 254
254 255 254
254 255 254
218 255 210
150 242 106
170 255 112
186 255 130
220 255 192
223 255 197
220 255 192
223 255 197
206 255 162
202 255 157
206 255 162
206 255 162
194 255 141
194 255 141
194 255 141
190 255 138
186 255 135
186 255 135
182 255 130
174 255 120
170 255 116
163 255 109
166 255 108
158 254 105
154 250 101
154 246 100
148 242 96
142 233 91
134 226 86
126 222 81
114 214 74
98 198 62
82 186 54
73 182 49
78 182 50
74 182 55
254 255 254
254 255 254
254 255 254
254 255 254
254 255 254
254 255 254
254 255 254
254 255 254
254 255 254
254 255 254
254 255 254
254 255 254
170 255 138
154 242 97
170 255 112
202 255 157
223 255 197
223 255 197
220 255 192
209 255 171
211 255 175
202 255 157
198 255 156
198 255 156
194 255 145
194 255 141
194 255 141
190 255 138
186 255 135
182 255 130
182 255 126
174 255 118
170 255 115
166 255 112
158 255 106
158 254 105
154 250 101
154 242 97
148 242 96
135 234 90
140 226 88
120 218 76
110 218 73
98 202 64
82 186 54
73 182 49
73 182 49
73 182 49
254 255 254
254 255 254
254 255 254
254 255 254
254 255 254
254 255 254
254 255 254
254 255 254
254 255 254
254 255 254
254 255 254
254 255 254
138 238 92
158 254 105
170 255 115
202 255 162
217 255 186
217 255 186
209 255 171
211 255 175
198 255 156
198 255 152
198 255 156
194 255 145
194 255 145
190 255 138
190 255 138
190 255 137
186 255 135
182 255 130
174 255 120
174 255 118
166 255 115
166 255 112
163 255 109
158 254 105
150 246 98
150 246 98
138 238 92
137 230 86
126 222 81
120 222 79
111 210 71
98 202 64
82 186 54
73 182 49
66 174 45
69 178 47
254 255 254
254 255 254
254 255 254
254 255 254
254 255 254
254 255 254
254 255 254
254 255 254
254 255 254
254 255 254
254 255 254
230 255 229
147 238 93
158 254 105
170 255 115
203 255 190
211 255 175
206 255 162
206 255 162
202 255 162
199 255 150
198 255 152
199 255 150
190 255 144
194 255 141
190 255 138
190 255 138
186 255 135
182 255 130
174 255 120
174 255 118
170 255 115
166 255 112
163 255 109
153 255 104
154 254 103
146 250 98
148 242 96
142 233 91
137 230 86
130 225 83
120 218 76
110 214 74
98 202 64
82 186 54
74 178 50
70 174 46
69 178 47
254 255 254
254 255 254
254 255 254
254 255 254
254 255 254
254 255 254
254 255 254
254 255 254
254 255 254
254 255 254
254 255 254
203 255 190
139 242 94
158 250 118
172 255 114
206 255 162
206 255 162
198 255 156
198 255 156
194 255 150
190 255 144
194 255 150
194 255 141
190 255 138
190 255 138
186 255 135
186 255 135
182 255 130
182 255 126
174 255 120
170 255 116
166 255 112
166 255 112
158 255 106
158 254 105
146 250 98
150 246 98
147 238 93
135 234 90
137 230 86
126 222 81
114 218 76
104 210 69
89 198 60
82 186 54
73 182 49
66 174 45
70 174 46
254 255 254
254 255 254
254 255 254
254 255 254
254 255 254
254 255 254
254 255 254
254 255 254
254 255 254
254 255 254
254 255 254
203 255 190
148 242 96
158 254 105
170 255 115
194 255 150
194 255 150
194 255 150
198 255 156
190 255 138
190 255 144
190 255 144
190 255 144
186 255 135
186 255 135
178 255 128
182 255 130
178 255 128
174 255 120
170 255 116
170 255 116
166 255 112
163 255 109
153 255 104
154 254 103
150 246 98
142 246 96
138 238 92
134 238 90
130 230 87
120 222 79
114 214 74
104 206 68
87 190 56
73 182 49
69 178 47
66 174 45
110 214 90
254 255 254
254 255 254
254 255 254
254 255 254
254 255 254
254 255 254
254 255 254
254 255 254
254 255 254
254 255 254
254 255 254
203 255 190
138 238 92
154 254 103
170 255 138
186 255 142
190 255 154
194 255 150
186 255 142
190 255 144
186 255 135
186 255 135
186 255 135
186 255 135
178 255 124
182 255 130
178 255 128
174 255 120
174 255 120
170 255 116
166 255 112
166 255 112
158 255 106
158 254 105
150 254 101
146 250 98
134 242 90
138 238 92
135 234 90
122 226 82
120 222 79
111 210 71
94 198 61
82 190 57
74 178 50
69 178 47
66 170 44
142 251 132
254 255 254
254 255 254
254 255 254
254 255 254
254 255 254
254 255 254
254 255 254
254 255 254
254 255 254
254 255 254
254 255 254
218 255 210
138 238 92
150 250 102
163 255 109
178 255 124
190 255 144
190 255 144
178 255 128
178 255 128
178 255 128
182 255 130
178 255 128
178 255 128
178 255 128
174 255 120
174 255 120
174 255 118
174 255 120
166 255 112
166 255 112
158 255 106
153 255 104
146 250 98
146 246 97
148 242 96
134 242 90
135 234 90
130 230 87
122 226 82
114 218 76
104 206 68
90 194 59
78 182 50
69 178 47
62 170 42
62 170 42
194 255 188
254 255 254
254 255 254
254 255 254
254 255 254
254 255 254
254 255 254
254 255 254
254 255 254
254 255 254
254 255 254
254 255 254
254 255 254
135 234 90
148 242 96
158 255 109
164 255 134
174 255 127
186 255 142
178 255 128
172 255 126
174 255 127
174 255 127
178 255 124
174 255 120
174 255 118
174 255 120
174 255 120
174 255 120
170 255 116
166 255 115
162 255 111
158 255 106
154 254 103
146 246 97
142 246 96
134 242 90
135 234 90
126 234 85
126 230 85
120 222 79
106 214 70
94 198 61
82 190 57
78 186 54
70 174 46
66 170 44
78 186 54
254 255 254
254 255 254
254 255 254
254 255 254
254 255 254
254 255 254
254 255 254
254 255 254
254 255 254
254 255 254
254 255 254
254 255 254
254 255 254
164 255 134
138 238 92
150 250 102
158 255 109
170 255 138
172 255 126
174 255 127
170 255 116
170 255 116
170 255 116
174 255 118
174 255 120
174 255 120
174 255 120
170 255 116
166 255 115
158 255 106
162 255 111
153 255 104
150 254 101
146 250 98
142 246 96
134 242 90
134 238 90
126 234 85
126 230 85
122 226 82
106 214 70
104 210 69
94 198 61
82 186 54
66 174 45
62 174 44
62 170 42
142 251 132
254 255 254
254 255 254
254 255 254
254 255 254
254 255 254
254 255 254
254 255 254
254 255 254
254 255 254
254 255 254
254 255 254
254 255 254
254 255 254
214 255 213
130 230 87
146 246 97
150 254 101
158 255 106
163 255 115
163 255 115
163 255 115
166 255 112
170 255 116
166 255 115
166 255 112
166 255 112
166 255 115
166 255 115
162 255 111
166 255 112
153 255 104
153 255 104
150 254 101
146 250 98
142 246 96
138 238 92
126 234 85
130 230 87
122 226 82
114 222 77
104 206 68
98 198 62
78 186 54
73 182 49
66 174 45
62 174 44
62 170 42
222 255 214
254 255 254
254 255 254
254 255 254
254 255 254
254 255 254
254 255 254
254 255 254
254 255 254
254 255 254
254 255 254
254 255 254
254 255 254
254 255 254
254 255 254
138 238 92
134 238 90
139 242 94
150 254 101
154 254 103
158 255 106
158 255 109
158 255 106
158 255 106
162 255 111
162 255 111
166 255 112
162 255 111
163 255 109
158 255 106
153 255 104
153 255 104
150 254 101
146 250 98
138 246 95
134 242 90
134 242 90
126 230 85
120 222 79
110 218 73
111 210 71
98 202 64
89 198 60
78 186 54
69 178 47
62 166 42
62 170 42
130 230 102
254 255 254
254 255 254
254 255 254
254 255 254
254 255 254
254 255 254
254 255 254
254 255 254
254 255 254
254 255 254
254 255 254
254 255 254
254 255 254
254 255 254
254 255 254
218 255 218
135 234 90
138 238 92
139 242 94
146 250 98
150 250 102
154 254 103
158 255 109
158 255 109
153 255 104
158 255 106
158 255 106
158 255 106
158 255 106
153 255 104
153 255 104
146 246 97
146 250 98
134 242 90
130 238 89
126 234 85
122 230 83
118 226 81
110 218 73
104 210 69
98 206 67
89 198 60
82 190 57
73 182 49
66 174 45
62 166 42
62 166 42
222 255 214
254 255 254
254 255 254
254 255 254
254 255 254
254 255 254
254 255 254
254 255 254
254 255 254
254 255 254
254 255 254
254 255 254
254 255 254
254 255 254
254 255 254
254 255 254
254 255 254
164 255 134
126 230 85
135 234 90
134 238 90
138 246 95
139 250 102
146 250 98
150 254 101
154 254 103
150 254 101
150 254 101
153 255 104
150 254 101
146 250 98
139 250 102
134 242 90
134 242 90
130 238 89
122 230 83
122 226 82
114 218 76
106 214 70
104 210 69
94 202 63
98 202 64
89 198 60
82 190 57
73 182 49
62 170 42
62 170 42
107 218 102
222 255 214
230 255 229
246 255 246
254 255 254
254 255 254
254 255 254
254 255 254
254 255 254
254 255 254
254 255 254
254 255 254
254 255 254
254 255 254
254 255 254
254 255 254
254 255 254
254 255 254
234 255 233
135 234 90
126 230 85
126 230 85
135 234 90
138 238 92
139 242 94
138 246 95
138 246 95
138 246 95
138 246 95
138 246 95
138 246 95
134 242 90
134 242 90
130 238 89
126 230 85
122 230 83
118 226 81
114 222 77
110 218 73
106 214 70
104 210 69
98 202 64
89 198 60
86 194 57
78 186 54
66 174 45
62 170 42
69 178 47
134 234 132
154 254 154
170 255 170
190 255 190
214 255 213
238 255 238
250 255 250
254 255 254
254 255 254
254 255 254
254 255 254
254 255 254
254 255 254
254 255 254
254 255 254
254 255 254
254 255 254
254 255 254
254 255 254
234 255 233
130 234 89
118 226 81
126 230 85
126 230 85
130 230 87
130 234 89
134 238 90
126 234 85
126 234 85
122 230 83
126 234 85
122 230 83
126 230 85
122 230 83
114 222 77
110 218 73
106 214 70
110 218 73
98 206 67
104 206 68
98 206 67
90 202 64
89 198 60
82 190 57
74 178 50
62 170 42
62 170 42
38 142 26
2 102 2
22 122 22
70 170 70
114 214 114
150 250 150
178 255 178
214 255 213
238 255 238
250 255 250
254 255 254
254 255 254
254 255 254
254 255 254
254 255 254
254 255 254
254 255 254
254 255 254
254 255 254
254 255 254
254 255 254
214 255 213
130 234 89
114 218 76
120 222 79
118 226 81
120 222 79
120 222 79
122 226 82
122 226 82
118 226 81
120 222 79
110 218 73
110 218 73
104 210 69
106 214 70
104 206 68
104 206 68
98 206 67
94 202 63
90 202 64
94 202 63
90 198 66
86 194 62
78 186 54
69 178 47
66 174 45
49 155 34
2 102 2
2 102 2
2 102 2
2 102 2
6 106 6
42 142 41
106 206 106
166 255 166
198 255 197
230 255 229
254 255 254
254 255 254
254 255 254
254 255 254
254 255 254
254 255 254
254 255 254
254 255 254
254 255 254
254 255 254
254 255 254
254 255 254
230 255 229
120 222 79
106 214 70
106 214 70
106 214 70
106 214 70
106 214 70
106 214 70
104 210 69
104 210 69
98 206 67
98 206 67
94 202 63
94 202 63
90 202 64
90 202 64
94 202 63
89 198 60
89 198 60
86 194 57
86 194 62
78 186 54
73 182 49
66 174 45
56 164 40
2 102 2
2 102 2
2 102 2
2 102 2
2 102 2
2 102 2
10 110 10
15 118 12
90 190 90
166 255 166
210 255 208
254 255 254
254 255 254
254 255 254
254 255 254
254 255 254
254 255 254
254 255 254
254 255 254
254 255 254
254 255 254
254 255 254
254 255 254
246 255 246
206 255 203
110 218 73
104 210 69
104 210 69
98 206 67
104 206 68
98 202 64
98 206 67
94 198 61
90 194 59
86 194 57
86 194 57
86 194 57
89 198 60
86 194 57
89 198 60
89 198 60
86 194 62
86 194 62
78 186 54
73 182 49
73 182 49
62 166 42
2 102 2
2 102 2
2 102 2
2 102 2
2 102 2
2 102 2
2 102 2
2 102 2
15 118 12
63 163 63
150 250 150
201 255 200
254 255 254
254 255 254
254 255 254
254 255 254
254 255 254
254 255 254
254 255 254
254 255 254
254 255 254
254 255 254
254 255 254
254 255 254
238 255 238
210 255 208
118 218 118
49 155 34
94 198 61
89 198 60
89 198 60
89 198 60
86 194 57
86 194 57
89 198 60
86 194 57
89 198 60
82 190 57
89 198 60
86 194 57
86 194 57
86 194 57
86 194 57
86 194 62
78 186 54
69 178 47
46 146 46
2 102 2
2 102 2
2 102 2
2 102 2
2 102 2
2 102 2
2 102 2
2 102 2
2 102 2
63 163 63
114 214 114
162 255 162
214 255 213
254 255 254
254 255 254
254 255 254
254 255 254
254 255 254
254 255 254
254 255 254
254 255 254
254 255 254
254 255 254
254 255 254
254 255 254
238 255 238
201 255 200
158 255 158
38 142 26
14 114 13
56 164 40
86 194 57
86 194 57
82 190 57
62 170 42
14 114 13
2 102 2
2 102 2
15 118 12
49 155 34
66 174 45
73 182 49
82 190 57
82 190 57
73 182 49
49 155 34
15 118 12
2 102 2
2 102 2
2 102 2
2 102 2
2 102 2
2 102 2
2 102 2
2 102 2
10 110 10
82 182 82
118 218 118
154 254 154
198 255 197
234 255 233
254 255 254
254 255 254
254 255 254
254 255 254
254 255 254
254 255 254
254 255 254
254 255 254
254 255 254
254 255 254
254 255 254
254 255 254
246 255 246
218 255 218
178 255 178
123 226 122
56 156 56
10 110 10
2 102 2
26 126 26
26 130 18
2 102 2
2 102 2
2 102 2
2 102 2
2 102 2
2 102 2
2 102 2
2 102 2
2 102 2
2 102 2
2 102 2
2 102 2
2 102 2
2 102 2
2 102 2
2 102 2
2 102 2
2 102 2
2 102 2
10 110 10
70 170 70
110 210 110
134 234 132
166 255 166
198 255 197
234 255 233
250 255 250
254 255 254
254 255 254
254 255 254
254 255 254
254 255 254
254 255 254
254 255 254
254 255 254
254 255 254
254 255 254
254 255 254
254 255 254
254 255 254
238 255 238
218 255 210
178 255 178
150 250 150
122 222 122
70 170 70
26 130 18
10 110 10
2 102 2
2 102 2
2 102 2
2 102 2
2 102 2
2 102 2
2 102 2
2 102 2
2 102 2
2 102 2
2 102 2
2 102 2
2 102 2
2 102 2
2 102 2
2 102 2
10 110 10
42 142 41
82 182 82
114 214 114
138 238 138
162 255 162
194 255 194
218 255 218
238 255 238
250 255 250
254 255 254
254 255 254
254 255 254
254 255 254
254 255 254
254 255 254
254 255 254
254 255 254
254 255 254
254 255 254
254 255 254
254 255 254
254 255 254
254 255 254
254 255 254
246 255 246
230 255 229
214 255 213
190 255 190
166 255 166
138 238 138
114 214 114
90 190 90
56 156 56
46 146 46
46 146 46
42 142 41
42 142 41
30 130 30
26 126 26
22 122 22
10 110 10
10 110 10
15 118 12
30 130 30
56 156 56
82 182 82
106 206 106
122 222 122
123 226 122
150 250 150
174 255 174
198 255 197
222 255 222
238 255 238
250 255 250
254 255 254
254 255 254
254 255 254
254 255 254
254 255 254
254 255 254
254 255 254
254 255 254
254 255 254
254 255 254
254 255 254
254 255 254
254 255 254
254 255 254
254 255 254
254 255 254
254 255 254
254 255 254
254 255 254
250 255 250
242 255 242
226 255 224
214 255 213
201 255 200
178 255 178
162 255 162
154 254 154
150 250 150
158 255 158
162 255 162
162 255 162
158 255 158
158 255 158
166 255 166
166 255 166
178 255 178
174 255 174
174 255 174
186 255 186
182 255 182
190 255 190
194 255 194
210 255 208
226 255 224
242 255 242
250 255 250
254 255 254
254 255 254
254 255 254
254 255 254
254 255 254
254 255 254
254 255 254
254 255 254
254 255 254
254 255 254
254 255 254
254 255 254
254 255 254
254 255 254
254 255 254
254 255 254
254 255 254
254 255 254
254 255 254
254 255 254
254 255 254
254 255 254
254 255 254
254 255 254
250 255 250
242 255 242
242 255 242
230 255 229
222 255 222
218 255 218
226 255 224
222 255 222
222 255 222
222 255 222
218 255 218
226 255 224
226 255 224
234 255 233
234 255 233
234 255 233
238 255 238
238 255 238
238 255 238
246 255 246
250 255 250
254 255 254
254 255 254
254 255 254
254 255 254
254 255 254
254 255 254
254 255 254
254 255 254
254 255 254
254 255 254
254 255 254
254 255 254
254 255 254
254 255 254
254 255 254
254 255 254
254 255 254
254 255 254
254 255 254
254 255 254
254 255 254
254 255 254
254 255 254
254 255 254
254 255 254
254 255 254
254 255 254
254 255 254
254 255 254
254 255 254
254 255 254
254 255 254
254 255 254
250 255 250
250 255 250
246 255 246
250 255 250
250 255 250
254 255 254
254 255 254
254 255 254
254 255 254
254 255 254
254 255 254
254 255 254
254 255 254
254 255 254
254 255 254
254 255 254
254 255 254
254 255 254
254 255 254
254 255 254
254 255 254
254 255 254
254 255 254
